<?xml version="1.0" encoding="utf-8"?>
<!-- Generator: Adobe Illustrator 19.0.0, SVG Export Plug-In . SVG Version: 6.00 Build 0)  -->
<svg version="1.1" id="Layer_1" xmlns="http://www.w3.org/2000/svg" xmlns:xlink="http://www.w3.org/1999/xlink" x="0px" y="0px"
	 viewBox="-703 -46.4 512 829.4" style="enable-background:new -703 -46.4 512 829.4;" xml:space="preserve">
<style type="text/css">
	.st0{fill:#FFC843;}
	.st1{fill:#D49000;}
	.st2{fill:#FFFFFF;}
	.st3{opacity:0.1;enable-background:new    ;}
	.st4{fill:#5C6670;}
	.st5{fill:#333E48;}
</style>
<path id="SVGCleanerId_0" class="st0" d="M-507.7,438.7c0,48.6-88.9,76.2-88.9,182.9c0,82.1,66.5,148.6,148.6,148.6
	s148.6-66.5,148.6-148.6c0-106.7-88.9-134.3-88.9-182.9H-507.7z"/>
<g>
	<path id="SVGCleanerId_0_1_" class="st0" d="M-507.7,438.7c0,48.6-88.9,76.2-88.9,182.9c0,82.1,66.5,148.6,148.6,148.6
		s148.6-66.5,148.6-148.6c0-106.7-88.9-134.3-88.9-182.9H-507.7z"/>
</g>
<g>
	<path class="st1" d="M-419.1,430.4c4.6,0,8.2,3.7,8.2,8.2c0,42.7,12.3,61.3,25.3,80.9c12.1,18.2,24.6,37.1,24.6,73.8
		c0,4.6-3.7,8.2-8.2,8.2c-4.6,0-8.2-3.7-8.2-8.2c0-31.7-10.1-47-21.8-64.7c-13.2-19.8-28.1-42.3-28.1-90
		C-427.4,434.1-423.7,430.4-419.1,430.4z"/>
	<path class="st1" d="M-476.7,430.4c4.6,0,8.2,3.7,8.2,8.2c0,47.7-14.9,70.2-28.1,90c-11.7,17.7-21.8,32.9-21.8,64.7
		c0,4.6-3.7,8.2-8.2,8.2c-4.6,0-8.2-3.7-8.2-8.2c0-36.7,12.5-55.5,24.6-73.8c13-19.6,25.3-38.2,25.3-80.9
		C-484.9,434.1-481.2,430.4-476.7,430.4z"/>
</g>
<path class="st2" d="M-474.8,555.3c2.5,0,4.9,1.1,6.4,3.1l20.5,25.4l20.5-25.4c1.6-1.9,3.9-3.1,6.4-3.1l0,0c2.5,0,4.9,1.1,6.4,3.1
	l26.9,33.4c2.9,3.5,2.3,8.7-1.3,11.6c-3.5,2.9-8.7,2.3-11.6-1.3l-20.5-25.4l-20.5,25.4c-1.6,1.9-3.9,3.1-6.4,3.1s-4.9-1.1-6.4-3.1
	l-20.5-25.4l-20.5,25.4c-2.9,3.5-8,4.1-11.6,1.3c-3.5-2.9-4.1-8-1.3-11.6l26.9-33.4C-479.6,556.4-477.3,555.3-474.8,555.3z"/>
<path class="st3" d="M-382.8,459.4c-3.4-6.7-5.4-13.4-5.4-20.7h-119.5c0,7.3-2,14-5.4,20.7H-382.8z"/>
<circle class="st4" cx="-447.9" cy="278.5" r="20.3"/>
<path class="st3" d="M-447.9,298.7c11.2,0,20.3-9.1,20.3-20.3c0-0.9-0.1-1.8-0.2-2.6c-6.3-2-13.1-3.1-20.1-3.1s-13.7,1.1-20.1,3.1
	c-0.1,0.9-0.2,1.7-0.2,2.6C-468.2,289.7-459.1,298.7-447.9,298.7z"/>
<circle class="st5" cx="-447.9" cy="338.5" r="60"/>
<path class="st3" d="M-447.9,398.5c33.1,0,60-26.9,60-60c0-4.4-0.5-8.6-1.4-12.7h-117.3c-0.9,4.1-1.4,8.3-1.4,12.7
	C-507.9,371.6-481,398.5-447.9,398.5z"/>
<path class="st4" d="M-533,358.8c0-11.2,9.1-20.3,20.3-20.3h129.6c11.2,0,20.3,9.1,20.3,20.3v63.1c0,11.2-9.1,20.3-20.3,20.3h-129.6
	c-11.2,0-20.3-9.1-20.3-20.3V358.8z"/>
<g>
	<rect x="-533" y="401.5" class="st5" width="170.2" height="16.5"/>
	<rect x="-533" y="362.6" class="st5" width="170.2" height="16.5"/>
</g>
<rect x="-454.9" y="-182.8" class="st4" width="11" height="443"/>
<g>
	<path d="M-470.5,680.8c5.7,0,10.2-4.6,10.2-10.2c0-5.7-4.6-10.3-10.2-10.3s-10.2,4.6-10.2,10.2S-476.1,680.8-470.5,680.8z"/>
	<path d="M-494.4,636.4V710v22.1h92V710v-73.6H-494.4z M-490.7,640h84.7v50.9l-20.8-19.1c-0.4-0.3-0.8-0.5-1.3-0.5
		c-0.5,0-0.9,0.2-1.3,0.6l-15.4,16.9l7,7c0.7,0.7,0.7,1.9,0,2.6c-0.4,0.4-0.8,0.5-1.3,0.5c-0.5,0-0.9-0.2-1.3-0.5l-7-6.7l-8.7-8.7
		c-0.7-0.7-1.8-0.7-2.5-0.1l-30.8,27.1h-1.1V640z M-406.1,728.4h-84.7v-14.7h84.7V728.4z"/>
</g>
</svg>
