<?xml version="1.0" encoding="utf-8"?>
<!-- Generator: Adobe Illustrator 19.0.0, SVG Export Plug-In . SVG Version: 6.00 Build 0)  -->
<svg version="1.1" id="Layer_1" xmlns="http://www.w3.org/2000/svg" xmlns:xlink="http://www.w3.org/1999/xlink" x="0px" y="0px"
	 viewBox="-703 -298 512 955" style="enable-background:new -703 -298 512 955;" xml:space="preserve">
<style type="text/css">
	.st0{fill:#FFC843;}
	.st1{fill:#D49000;}
	.st2{fill:#FFFFFF;}
	.st3{opacity:0.1;enable-background:new    ;}
	.st4{fill:#5C6670;}
	.st5{fill:#333E48;}
</style>
<path id="SVGCleanerId_0" class="st0" d="M-506.8,325.5c0,48.6-88.9,76.2-88.9,182.9c0,82.1,66.5,148.6,148.6,148.6
	s148.6-66.5,148.6-148.6c0-106.7-88.9-134.3-88.9-182.9H-506.8z"/>
<g>
	<path id="SVGCleanerId_0_1_" class="st0" d="M-506.8,325.5c0,48.6-88.9,76.2-88.9,182.9c0,82.1,66.5,148.6,148.6,148.6
		s148.6-66.5,148.6-148.6c0-106.7-88.9-134.3-88.9-182.9H-506.8z"/>
</g>
<g>
	<path class="st1" d="M-418.2,317.2c4.6,0,8.2,3.7,8.2,8.2c0,42.7,12.3,61.3,25.3,80.9c12.1,18.2,24.6,37.1,24.6,73.8
		c0,4.6-3.7,8.2-8.2,8.2c-4.6,0-8.2-3.7-8.2-8.2c0-31.7-10.1-47-21.8-64.7c-13.2-19.8-28.1-42.3-28.1-90
		C-426.5,320.9-422.8,317.2-418.2,317.2z"/>
	<path class="st1" d="M-475.8,317.2c4.6,0,8.2,3.7,8.2,8.2c0,47.7-14.9,70.2-28.1,90c-11.7,17.7-21.8,32.9-21.8,64.7
		c0,4.6-3.7,8.2-8.2,8.2c-4.6,0-8.2-3.7-8.2-8.2c0-36.7,12.5-55.6,24.6-73.8c13-19.6,25.3-38.2,25.3-80.9
		C-484,320.9-480.3,317.2-475.8,317.2z"/>
</g>
<path class="st2" d="M-473.9,442.1c2.5,0,4.9,1.1,6.4,3.1l20.5,25.4l20.5-25.4c1.6-1.9,3.9-3.1,6.4-3.1l0,0c2.5,0,4.9,1.1,6.4,3.1
	l26.9,33.4c2.9,3.5,2.3,8.7-1.3,11.6c-3.5,2.9-8.7,2.3-11.6-1.3l-20.5-25.4l-20.5,25.4c-1.6,1.9-3.9,3.1-6.4,3.1s-4.9-1.1-6.4-3.1
	l-20.5-25.4l-20.5,25.4c-2.9,3.5-8,4.1-11.6,1.3c-3.5-2.9-4.1-8-1.3-11.6l26.9-33.4C-478.7,443.2-476.4,442.1-473.9,442.1z"/>
<path class="st3" d="M-381.9,346.2c-3.4-6.7-5.4-13.4-5.4-20.7h-119.5c0,7.3-2,14-5.4,20.7H-381.9z"/>
<circle class="st4" cx="-447" cy="165.3" r="20.3"/>
<path class="st3" d="M-447,185.5c11.2,0,20.3-9.1,20.3-20.3c0-0.9-0.1-1.8-0.2-2.6c-6.3-2-13.1-3.1-20.1-3.1s-13.7,1.1-20.1,3.1
	c-0.1,0.9-0.2,1.7-0.2,2.6C-467.3,176.5-458.2,185.5-447,185.5z"/>
<circle class="st5" cx="-447" cy="225.3" r="60"/>
<path class="st3" d="M-447,285.3c33.1,0,60-26.9,60-60c0-4.4-0.5-8.6-1.4-12.7h-117.3c-0.9,4.1-1.4,8.3-1.4,12.7
	C-507,258.4-480.1,285.3-447,285.3z"/>
<path class="st4" d="M-532.1,245.6c0-11.2,9.1-20.3,20.3-20.3h129.6c11.2,0,20.3,9.1,20.3,20.3v63.1c0,11.2-9.1,20.3-20.3,20.3
	h-129.6c-11.2,0-20.3-9.1-20.3-20.3V245.6z"/>
<g>
	<rect x="-532.1" y="288.3" class="st5" width="170.2" height="16.5"/>
	<rect x="-532.1" y="249.4" class="st5" width="170.2" height="16.5"/>
</g>
<rect x="-454" y="-296" class="st4" width="11" height="443"/>
</svg>
